<svg xmlns="http://www.w3.org/2000/svg" xmlns:xlink="http://www.w3.org/1999/xlink" version="1.1" id="Layer_1" x="0px" y="0px" viewBox="0 0 150 150" style="enable-background:new 0 0 150 150;" xml:space="preserve">
<g>
	<path d="M0.8,78.1l0-5.7c0-1.1,0.1-2.2,0.3-3.3c0,0,0,0,0,0c0.4-2.7,0.6-5.4,1.1-8C5,46.4,11.7,33.6,22.3,22.9   C33.3,11.7,46.7,4.7,62.2,2c2.5-0.4,5-0.7,7.5-1c0.6-0.1,1.2-0.1,1.8-0.1l6.3,0c0.9,0,1.8,0.1,2.7,0.2c0,0,0,0,0,0   c4,0.6,8.2,1,12.1,1.9c38,9.1,62.6,47.3,55.1,85.8c-3.1,16-10.6,29.6-22.6,40.6c-17,15.5-37.1,21.8-59.9,19   c-13.2-1.6-25.9-6.8-36.2-15.2C14.4,121.4,5.2,106.2,2,87.8c-0.4-2.4-0.7-4.7-1-7.1C0.9,79.8,0.8,78.9,0.8,78.1z M72,84.9   c-1.8,0.2-3.5,0.3-5.3,0.6c-18.8,3.6-32.2,14.1-39.9,31.6c-0.5,1.1-0.3,1.8,0.5,2.6c15.4,15.7,34,22.6,55.8,20.1   c15.7-1.8,28.9-8.9,39.7-20.3c0.7-0.7,0.8-1.3,0.4-2.3c-1.8-4.3-4-8.2-6.8-11.9C108.5,95.2,98.3,88.7,85.6,86   c-2.5-0.5-5-0.8-7.7-1.2c15.7-2.2,24.5-15.9,23-28.6c-1.6-13.8-12.8-23.7-26.2-23.5C61.3,32.9,50.4,43,49,56.5   C47.8,69.5,56.8,82.7,72,84.9z" style="&#10;    fill: #d3d3d3;&#10;"/>
	<path class="st0" d="M72,84.9C56.8,82.7,47.8,69.5,49,56.5C50.4,43,61.3,32.9,74.7,32.7c13.4-0.2,24.6,9.7,26.2,23.5   c1.5,12.7-7.3,26.4-23,28.6c2.7,0.4,5.2,0.7,7.7,1.2c12.7,2.6,23,9.2,30.9,19.4c2.8,3.6,5,7.6,6.8,11.9c0.4,0.9,0.3,1.5-0.4,2.3   c-10.9,11.4-24,18.5-39.7,20.3c-21.9,2.5-40.5-4.4-55.8-20.1c-0.8-0.8-1-1.5-0.5-2.6c7.8-17.6,21.1-28.1,39.9-31.6   C68.4,85.2,70.2,85.1,72,84.9z" style="&#10;    fill: #fff;&#10;"/>
</g>
</svg>