<svg width="20" height="20" viewBox="0 0 20 20" fill="none" xmlns="http://www.w3.org/2000/svg">
<path id="Vector" d="M3.5728 17.1429C3.46964 17.1429 3.38973 17.1429 3.30982 17.1429C2.46898 17.1429 1.62815 17.1441 0.787314 17.1429C0.297125 17.1417 0.00193809 16.8537 0.00134176 16.3718C-0.000447253 14.9806 -0.000447253 13.5893 0.00134176 12.1975C0.00193809 11.7234 0.293547 11.4306 0.766442 11.4294C1.61503 11.427 2.46302 11.4288 3.31161 11.4288C3.39152 11.4288 3.47143 11.4288 3.5728 11.4288C3.5728 11.328 3.5728 11.2481 3.5728 11.1688C3.5728 10.328 3.57161 9.48713 3.5728 8.64629C3.574 8.14358 3.85964 7.85793 4.36235 7.85733C5.99214 7.85614 7.62133 7.85733 9.26961 7.85733V5.7141H9.04002C8.19918 5.7141 7.35835 5.71529 6.51751 5.7141C6.00228 5.7135 5.71663 5.42786 5.71604 4.91322C5.71485 3.54403 5.71485 2.17484 5.71604 0.806249C5.71604 0.276105 5.99632 0.000596337 6.53362 0C8.848 0 11.1624 0 13.4768 0C14.0063 0 14.2884 0.282071 14.289 0.812214C14.2902 2.17365 14.2896 3.53568 14.289 4.89712C14.289 5.43979 14.0093 5.7135 13.4589 5.7141C12.6329 5.7147 11.807 5.7141 10.9805 5.7141C10.9006 5.7141 10.8201 5.7141 10.7288 5.7141V7.85733C10.804 7.85733 10.8821 7.85733 10.9602 7.85733C12.5083 7.85733 14.0558 7.85733 15.6039 7.85733C16.1507 7.85733 16.4316 8.13523 16.4322 8.67611C16.4334 9.58314 16.4322 10.4902 16.4322 11.4288C16.5217 11.4288 16.6004 11.4288 16.6791 11.4288C17.5199 11.4288 18.3608 11.4282 19.2016 11.4288C19.7168 11.4294 20.0037 11.7144 20.0043 12.2285C20.0055 13.5977 20.0055 14.9669 20.0043 16.3355C20.0043 16.865 19.7222 17.1423 19.1867 17.1429C18.2797 17.1435 17.372 17.1429 16.4322 17.1429C16.4322 17.224 16.4322 17.295 16.4322 17.3659C16.4322 17.9688 16.4322 18.5711 16.4322 19.174C16.4322 19.6702 16.1501 19.997 15.7232 19.9999C15.2944 20.0029 15.0046 19.6749 15.004 19.1842C15.0034 18.5151 15.004 17.846 15.004 17.1435H14.7595C13.9186 17.1435 13.0778 17.1441 12.237 17.1435C11.7188 17.1429 11.4325 16.8596 11.4319 16.3462C11.4307 14.9698 11.4307 13.5935 11.4319 12.2166C11.4319 11.7144 11.7188 11.43 12.2233 11.4294C13.138 11.4282 14.0534 11.4294 14.9861 11.4294V9.30107H5.01355V11.4294C5.0881 11.4294 5.16621 11.4294 5.24434 11.4294C6.08517 11.4294 6.926 11.4288 7.76684 11.4294C8.28327 11.43 8.57249 11.7144 8.57309 12.2255C8.57428 13.6019 8.57428 14.9782 8.57309 16.3551C8.57309 16.8567 8.28446 17.1429 7.78175 17.1435C6.86697 17.1453 5.95159 17.1435 5.00103 17.1435C5.00103 17.2288 5.00103 17.3069 5.00103 17.385C5.00103 17.9951 5.00222 18.6051 5.00103 19.2152C4.99984 19.6737 4.70882 19.9952 4.29556 19.9999C3.87395 20.0047 3.574 19.6791 3.5728 19.2104C3.57101 18.5336 3.5728 17.8567 3.5728 17.1435V17.1429ZM7.1544 4.26858H12.8423V1.43956H7.1544V4.26858ZM7.13472 12.8725H1.44746V15.7021H7.13532V12.8725H7.13472ZM12.8697 15.698H18.5576V12.8689H12.8697V15.698Z" fill="black"/>
</svg>
