<svg width="20" height="20" viewBox="0 0 20 20" fill="none" xmlns="http://www.w3.org/2000/svg">
<path d="M18.7888 0C18.8362 0.0176117 18.8824 0.0383543 18.9305 0.0524436C19.5681 0.23991 19.997 0.790176 19.9978 1.4559C20.0013 4.37239 20.0025 7.28888 19.9978 10.2054C19.9966 11.0409 19.3532 11.6644 18.491 11.6679C16.8699 11.6742 15.2489 11.6699 13.6282 11.6699C13.2052 11.6699 12.7821 11.673 12.3586 11.6691C11.4577 11.6613 10.8327 11.0433 10.8315 10.1443C10.828 7.27361 10.8288 4.40252 10.8311 1.53182C10.8319 0.753387 11.2538 0.227386 12.0197 0.0277873C12.0377 0.0230908 12.0538 0.00978425 12.0706 0.00039137C14.31 0.00039137 16.5494 0.00039137 18.7888 0.00039137V0ZM12.0804 5.8185C12.0804 7.23682 12.0804 8.65554 12.0804 10.0739C12.0804 10.3607 12.1375 10.4191 12.4205 10.4191C14.418 10.4194 16.4156 10.4194 18.4131 10.4191C18.6965 10.4191 18.7497 10.3635 18.7497 10.0735C18.7497 7.24935 18.7497 4.42561 18.7497 1.60149C18.7497 1.29465 18.7055 1.25004 18.4029 1.25004C16.4117 1.25004 14.4208 1.25004 12.4295 1.25004C12.1305 1.25004 12.0804 1.30013 12.0804 1.60188C12.0804 3.00729 12.0804 4.4127 12.0804 5.8185Z" fill="black"/>
<path d="M0.000391752 9.56997C0.0446166 9.4416 0.076318 9.30658 0.135415 9.18564C0.403112 8.63929 0.849274 8.33833 1.45433 8.3352C3.5372 8.32424 5.62047 8.32228 7.70334 8.3348C8.57061 8.33989 9.16745 8.98683 9.16863 9.87837C9.17137 11.701 9.16941 13.5236 9.16941 15.3466C9.16941 16.3685 9.17019 17.3907 9.16941 18.4126C9.16824 19.391 8.562 19.9992 7.58828 19.9996C5.5962 20 3.60452 19.9996 1.61245 19.9996C0.754562 19.9996 0.27983 19.6454 0.0250483 18.8169C0.0215259 18.8059 0.00861014 18.7981 0 18.7887C0 15.716 0 12.643 0 9.57036L0.000391752 9.56997ZM1.25043 14.1517C1.25043 15.5767 1.25043 17.0017 1.25043 18.4267C1.25043 18.692 1.30639 18.7492 1.56783 18.7492C3.5783 18.7496 5.58916 18.7496 7.59963 18.7492C7.85871 18.7492 7.91938 18.6889 7.91938 18.4263C7.91977 15.5892 7.91977 12.7522 7.91938 9.91516C7.91938 9.64081 7.8595 9.58014 7.58867 9.58014C5.58446 9.57975 3.58065 9.57936 1.57644 9.58014C1.30522 9.58014 1.25004 9.63807 1.25004 9.91594C1.25004 11.328 1.25004 12.7401 1.25004 14.1517H1.25043Z" fill="black"/>
<path d="M7.93004 0C8.17269 0.117802 8.44078 0.201947 8.65212 0.361235C9.01648 0.635585 9.16755 1.03909 9.16872 1.49151C9.17186 2.72159 9.17772 3.95166 9.16716 5.18174C9.15972 6.03845 8.54058 6.66229 7.68269 6.66621C5.61978 6.6756 3.55648 6.67325 1.49357 6.66699C0.759356 6.66464 0.2177 6.22552 0.0361043 5.5191C0.0282769 5.48818 0.0126208 5.45922 0.000488281 5.42948C0.000488281 4.02328 0.000488281 2.61709 0.000488281 1.2109C0.0243619 1.14515 0.050193 1.08018 0.0721097 1.01404C0.204393 0.617582 0.456043 0.324446 0.83489 0.146372C0.956606 0.0892324 1.08576 0.0485299 1.21139 0.00039137C3.45081 0.00039137 5.69023 0.00039137 7.92965 0.00039137L7.93004 0ZM4.58891 1.25004C3.587 1.25004 2.5851 1.25004 1.58358 1.25004C1.30336 1.25004 1.25092 1.30131 1.25092 1.57644C1.25092 2.74742 1.25092 3.9184 1.25092 5.08938C1.25092 5.36138 1.30845 5.4193 1.5828 5.4193C3.58661 5.41969 5.59004 5.41969 7.59385 5.4193C7.85529 5.4193 7.91986 5.35629 7.91986 5.09916C7.92104 3.92153 7.92104 2.74429 7.91986 1.56665C7.91986 1.30874 7.85764 1.25004 7.59424 1.24964C6.59234 1.24925 5.59043 1.24964 4.58891 1.24964V1.25004Z" fill="black"/>
<path d="M15.4236 19.9991C14.4088 19.9991 13.3936 19.9999 12.3787 19.9991C11.4555 19.9979 10.834 19.3819 10.8313 18.4586C10.8277 17.2614 10.8277 16.0642 10.8313 14.867C10.834 13.9555 11.4543 13.3325 12.3646 13.3309C14.4009 13.3274 16.4376 13.327 18.4739 13.3309C19.3843 13.3329 19.9983 13.9591 19.9991 14.8729C20.0003 16.0701 20.0007 17.2673 19.9991 18.4645C19.9979 19.3756 19.3776 19.9971 18.4681 19.9991C17.4532 20.001 16.438 19.9995 15.4232 19.9995L15.4236 19.9991ZM15.413 18.749C16.4149 18.749 17.4168 18.749 18.4184 18.749C18.6974 18.749 18.7495 18.6978 18.7495 18.4207C18.7495 17.2497 18.7495 16.0787 18.7495 14.9077C18.7495 14.6369 18.6919 14.5798 18.4156 14.5794C16.4185 14.579 14.4213 14.579 12.4241 14.5794C12.138 14.5794 12.0805 14.6365 12.0801 14.9203C12.0797 16.0846 12.0793 17.2493 12.0801 18.4136C12.0801 18.6962 12.1357 18.7487 12.4265 18.7487C13.4217 18.7487 14.417 18.7487 15.4122 18.7487L15.413 18.749Z" fill="black"/>
</svg>
