<svg width="19" height="20" viewBox="0 0 19 20" fill="none" xmlns="http://www.w3.org/2000/svg">
<g id="Group 33710">
<path id="Vector" d="M8.1884 14.5419C7.8497 14.7823 7.50676 15.0251 7.16381 15.2685C7.09583 15.3164 7.03332 15.3905 6.95805 15.4063C6.82694 15.4342 6.65152 15.4797 6.5629 15.419C6.46275 15.3504 6.37837 15.1671 6.3893 15.0427C6.45 14.3416 6.54227 13.6436 6.62299 12.9443C6.6321 12.863 6.63573 12.7811 6.64484 12.6639C6.46396 12.7204 6.30797 12.7653 6.1538 12.8169C4.86335 13.2503 3.57835 13.6964 2.38806 14.3744C1.88001 14.6633 1.55588 15.0724 1.38896 15.6345C1.09943 16.6111 0.95132 17.6127 0.823853 18.6184C0.781364 18.9565 0.760117 19.2971 0.721877 19.6351C0.695169 19.867 0.534925 20.0109 0.334619 19.9993C0.136135 19.9878 -0.0162175 19.8336 0.00138505 19.6163C0.122782 18.1134 0.302451 16.6209 0.784398 15.1799C0.998664 14.5395 1.42961 14.1025 1.99715 13.768C3.05269 13.1459 4.19019 12.7161 5.34225 12.3198C5.7641 12.1747 6.1896 12.0411 6.6157 11.9106C6.72557 11.8773 6.76988 11.8287 6.7808 11.7097C6.81297 11.348 6.85911 10.9874 6.90767 10.6275C6.92709 10.4836 6.9016 10.375 6.79962 10.259C6.33346 9.72853 6.01479 9.11548 5.81509 8.43687C5.78232 8.32518 5.69976 8.21228 5.60992 8.1352C4.98291 7.60044 4.74741 6.93458 4.89187 6.12486C4.91251 6.01014 4.90764 5.88328 4.88093 5.76977C4.41659 3.77643 5.27487 1.6356 6.99446 0.612825C7.92254 0.0610749 8.9611 -0.0560764 10.0221 0.0216178C10.7135 0.0726046 11.3763 0.247417 12.0063 0.545447C12.4834 0.771245 12.9933 0.81495 13.5153 0.771247C14.0258 0.728151 14.2674 1.00433 14.112 1.49356C14.0197 1.7843 13.8449 2.04774 13.718 2.32816C13.6822 2.40707 13.6519 2.51451 13.6768 2.58977C14.0088 3.59737 14.0762 4.61832 13.8637 5.6593C13.8467 5.74246 13.8534 5.84018 13.8807 5.92091C14.1617 6.75612 13.9475 7.5361 13.2804 8.11699C13.2076 8.18072 13.1481 8.28027 13.122 8.37435C12.9211 9.10394 12.566 9.74371 12.0537 10.3009C11.9894 10.3707 11.9535 10.5 11.9608 10.5971C11.9893 10.9589 12.0513 11.3182 12.0798 11.68C12.0913 11.8281 12.1526 11.8767 12.2825 11.9234C13.3065 12.2918 14.3353 12.6481 15.3442 13.0554C15.8953 13.2776 16.4155 13.5817 16.9399 13.8664C17.5839 14.216 17.9839 14.7574 18.1879 15.4658C18.5757 16.8133 18.7281 18.1942 18.8222 19.5854C18.8386 19.8239 18.7008 19.9823 18.4968 19.9987C18.2965 20.0151 18.1351 19.8719 18.1023 19.6436C18.0938 19.5842 18.0956 19.5228 18.0908 19.4621C17.9967 18.2998 17.8559 17.1453 17.5949 16.0048C17.4279 15.2746 17.0619 14.7319 16.3918 14.3665C15.0631 13.643 13.6482 13.1428 12.1775 12.6481C12.2012 12.8964 12.2182 13.1088 12.2425 13.3201C12.3074 13.8918 12.3881 14.4618 12.4331 15.0348C12.4428 15.1611 12.3608 15.3262 12.2674 15.4208C12.1514 15.5386 11.9851 15.4973 11.8497 15.402C11.5098 15.1617 11.1711 14.9195 10.8312 14.6791C10.7651 14.6324 10.6965 14.5899 10.6461 14.5565C10.5787 14.7756 10.5053 14.9838 10.4543 15.1969C10.4342 15.2794 10.461 15.3753 10.4749 15.4639C10.6582 16.6293 10.847 17.7936 11.0242 18.9602C11.0546 19.1605 11.0497 19.3687 11.0437 19.5726C11.0376 19.7863 10.8786 19.9356 10.6837 19.9356C10.4877 19.9356 10.328 19.7863 10.3232 19.5726C10.2904 18.1413 9.97416 16.7526 9.71741 15.3541C9.69555 15.2345 9.68827 15.0797 9.74593 14.9844C9.92135 14.6925 9.8655 14.3811 9.85882 14.0776C9.85457 13.8755 9.67188 13.8621 9.51831 13.8791C9.32043 13.9009 9.01694 13.7632 8.97263 14.0727C8.93075 14.3677 8.89858 14.6864 9.07521 14.979C9.13348 15.0749 9.12681 15.2278 9.10799 15.3486C8.91982 16.5438 8.71952 17.7371 8.53075 18.9322C8.5004 19.1253 8.51011 19.325 8.50283 19.5216C8.49433 19.7705 8.35653 19.932 8.1453 19.9362C7.92679 19.9411 7.75501 19.7711 7.78051 19.5119C7.86488 18.6543 7.95714 17.7972 8.07308 16.9432C8.14349 16.4266 8.26913 15.918 8.35714 15.4038C8.37474 15.3007 8.33954 15.1865 8.31709 15.0797C8.28127 14.9073 8.23574 14.7362 8.1884 14.5413V14.5419ZM6.87064 4.09206C6.85182 4.1825 6.83666 4.25534 6.82148 4.32757C6.65213 5.11544 6.33953 5.82137 5.69005 6.34155C5.63057 6.3889 5.58383 6.49026 5.58383 6.56674C5.58201 7.03412 5.78718 7.39831 6.18415 7.64293C6.34378 7.74126 6.4324 7.86387 6.47125 8.05082C6.59507 8.64506 6.85 9.18285 7.23665 9.65205C7.73923 10.2609 8.32559 10.7179 9.16869 10.7288C10.7584 10.7495 12.1132 9.65994 12.444 8.06964C12.4853 7.87055 12.566 7.72912 12.7329 7.60954C13.1001 7.34611 13.2816 6.97949 13.278 6.56735C12.3408 5.97797 12.1132 5.03775 11.8971 4.08114C10.2248 4.50239 8.56291 4.50785 6.87003 4.09146L6.87064 4.09206ZM5.55712 5.4335C5.9195 4.92728 6.10644 4.42591 6.14651 3.86869C6.17928 3.41892 6.42814 3.21861 6.83846 3.33151C8.55198 3.80253 10.2606 3.78189 11.9699 3.31209C12.3463 3.2089 12.6073 3.41042 12.6358 3.80071C12.6473 3.95913 12.657 4.11877 12.6862 4.27416C12.762 4.68266 12.8986 5.06749 13.1481 5.43289C13.352 4.63592 13.281 3.59312 12.9356 2.71239C12.8179 2.41193 12.8331 2.18309 13.0655 1.95426C13.1784 1.84318 13.2519 1.69265 13.3678 1.52391C13.2349 1.51784 13.1621 1.51298 13.0886 1.51177C12.5976 1.50388 12.1247 1.40312 11.6822 1.19553C10.8877 0.823447 10.0488 0.702655 9.18508 0.738468C7.66761 0.800987 6.54591 1.50145 5.89218 2.88234C5.51889 3.67081 5.40416 4.50967 5.55652 5.43472L5.55712 5.4335ZM11.2646 10.9328C10.0397 11.5185 8.82998 11.714 7.58202 10.9929C7.55288 11.2763 7.53226 11.5313 7.49887 11.785C7.48066 11.924 7.52558 11.9999 7.65001 12.0715C8.18658 12.3805 8.71891 12.6967 9.24517 13.0232C9.37749 13.1052 9.46611 13.0918 9.58993 13.0147C10.0264 12.744 10.4567 12.4588 10.9168 12.2336C11.2925 12.0496 11.4552 11.822 11.3289 11.4081C11.2858 11.266 11.2871 11.1106 11.2646 10.9328ZM7.37565 12.7525C7.31435 13.2909 7.25729 13.7953 7.19356 14.3532C7.65062 14.029 8.06639 13.7352 8.50767 13.4226C8.12406 13.1956 7.76412 12.9826 7.37504 12.7531L7.37565 12.7525ZM11.63 14.355C11.5657 13.7941 11.5074 13.2897 11.4461 12.7525C11.0546 12.985 10.6959 13.1987 10.3177 13.4232C10.756 13.734 11.1669 14.026 11.63 14.355Z" fill="black"/>
<path id="Vector_2" d="M14.5015 19.4564C13.9868 19.4564 13.4714 19.4576 12.9567 19.4564C12.6702 19.4557 12.5039 19.3198 12.5039 19.0934C12.5039 18.8664 12.6696 18.7304 12.9561 18.7304C13.9862 18.7292 15.0162 18.7292 16.0457 18.7304C16.3322 18.7304 16.4985 18.8664 16.4991 19.0928C16.4991 19.3192 16.3322 19.4557 16.0463 19.4564C15.5316 19.4582 15.0162 19.4564 14.5015 19.4564Z" fill="black"/>
</g>
</svg>
