<svg width="20" height="20" viewBox="0 0 20 20" fill="none" xmlns="http://www.w3.org/2000/svg">
<g id="Group 33709">
<path id="Vector" d="M0.00207657 6.83661C0.0344293 6.72598 0.0641796 6.61431 0.100185 6.50473C0.361094 5.71209 1.08851 5.17357 1.92498 5.15896C2.26312 5.1527 2.60178 5.15792 2.97175 5.15792C2.97175 5.08277 2.97175 5.01494 2.97175 4.94658C2.97175 3.71613 2.97123 2.4862 2.97175 1.25576C2.97228 0.490249 3.46278 0.00130455 4.23037 0.000782728C5.21348 -0.000260909 6.19659 -0.000260909 7.17969 0.000782728C7.94885 0.00130455 8.44042 0.488683 8.44094 1.25367C8.44198 2.47733 8.44094 3.701 8.44094 4.92466C8.44094 4.99459 8.44094 5.06503 8.44094 5.15687C8.75403 5.15687 9.05146 5.15687 9.3489 5.15687C10.5762 5.15844 11.409 5.98813 11.4101 7.21336C11.4111 8.5346 11.4101 9.85585 11.4101 11.1776C11.4101 11.2475 11.4101 11.3175 11.4101 11.3968H12.3478C12.3478 11.1927 12.3478 10.9877 12.3478 10.7821C12.3499 10.027 12.8404 9.53336 13.5918 9.5318C14.23 9.53023 14.8677 9.52971 15.5058 9.5318C16.2202 9.53441 16.718 10.0348 16.7232 10.7502C16.7248 10.9585 16.7232 11.1667 16.7232 11.4062C16.7973 11.4062 16.8657 11.4062 16.9335 11.4062C17.5519 11.4062 18.1708 11.4046 18.7891 11.4062C19.5124 11.4083 20.0039 11.8977 20.0044 12.6199C20.006 14.6639 20.0055 16.7078 20.0044 18.7518C20.0044 19.3837 19.7185 19.7709 19.1126 19.9671C19.0959 19.9729 19.0824 19.9885 19.0672 20H10.0027C9.83784 19.9176 9.67451 19.8325 9.50753 19.7553C9.47518 19.7401 9.42352 19.7427 9.39012 19.7574C9.21531 19.8346 9.04311 19.9186 8.86987 20H8.47903C8.45607 19.989 8.43363 19.9744 8.40962 19.9671C7.83041 19.8017 7.50635 19.379 7.5027 18.7826C7.50217 18.6741 7.5027 18.565 7.5027 18.4471H3.90789C3.90789 18.565 3.90685 18.6735 3.90789 18.7821C3.91259 19.1395 3.80091 19.4589 3.52331 19.6822C3.35163 19.8205 3.12986 19.8962 2.93105 19.9995H2.54021C2.51725 19.9885 2.49533 19.9739 2.4708 19.9666C1.88584 19.7996 1.5665 19.3775 1.56337 18.7669C1.56284 18.6459 1.56337 18.5243 1.56337 18.4142C1.53154 18.3975 1.52005 18.3907 1.50805 18.386C1.48353 18.3771 1.459 18.3698 1.43396 18.3625C0.687234 18.135 0.228546 17.6367 0.041213 16.8827C0.0307766 16.8399 0.0140891 16.7992 0 16.7574C0 15.6506 0 14.5439 0 13.4371C0.157589 13.2054 0.307347 13.1261 0.491027 13.1777C0.695058 13.2351 0.781683 13.387 0.781683 13.6891C0.781683 14.5809 0.781683 15.4727 0.781683 16.3645C0.781683 17.1723 1.26123 17.6555 2.06378 17.6555C4.32326 17.6555 6.58222 17.6555 8.84169 17.6555H9.06451C9.06451 17.5558 9.06451 17.4791 9.06451 17.4024C9.06451 15.8077 9.06347 14.2125 9.06503 12.6178C9.06607 11.8967 9.55814 11.4093 10.2819 11.4056C10.391 11.4051 10.4995 11.4056 10.6274 11.4056V11.1969C10.6274 9.86889 10.6274 8.54087 10.6274 7.21284C10.6274 6.41915 10.1441 5.93699 9.34994 5.93699C6.9214 5.93699 4.49285 5.93699 2.0643 5.93699C1.26018 5.93699 0.782206 6.41863 0.782206 7.22745C0.782206 8.14533 0.783248 9.06321 0.781161 9.98108C0.780639 10.2853 0.549985 10.5013 0.301078 10.409C0.185234 10.3662 0.0996679 10.2425 0.000522328 10.1554C0.000522328 9.04859 0.000522328 7.94182 0.000522328 6.83504L0.00207657 6.83661ZM16.7107 19.2105V12.2035H12.3582V19.2105H16.7107ZM7.64933 5.148V2.35627H3.76701V5.148H7.64933ZM17.5122 18.6772C17.8942 17.9305 18.4552 17.5068 19.2144 17.3445V14.0607C18.4452 13.901 17.89 13.4637 17.5122 12.7394V18.6772ZM9.85454 17.3445C10.6216 17.5041 11.1815 17.9373 11.5557 18.6631V12.741C11.1794 13.4752 10.6159 13.9046 9.85454 14.0648V17.345V17.3445ZM15.9421 11.3989C15.9421 11.1541 15.9483 10.9271 15.9405 10.7002C15.9327 10.4758 15.7787 10.3177 15.5544 10.3161C14.8776 10.3104 14.2008 10.3109 13.5234 10.3161C13.3132 10.3177 13.1493 10.4585 13.1368 10.6568C13.1222 10.9011 13.1331 11.1468 13.1331 11.3994H15.9416L15.9421 11.3989ZM3.76387 1.54902H7.65976C7.65976 1.46396 7.65976 1.39299 7.65976 1.32203C7.65976 0.897267 7.54288 0.781423 7.11186 0.781423C6.22633 0.781423 5.34081 0.799165 4.45633 0.775683C3.75813 0.756898 3.71534 0.986498 3.76387 1.54902ZM10.8961 19.2157C10.8136 18.7242 10.2798 18.2002 9.84828 18.182C9.84828 18.4027 9.84306 18.6229 9.84985 18.8431C9.85663 19.0466 9.98708 19.2006 10.1812 19.2126C10.4181 19.2272 10.656 19.2162 10.8961 19.2162V19.2157ZM19.2238 18.1679C18.7239 18.2655 18.2548 18.7367 18.176 19.2157C18.416 19.2157 18.6545 19.2267 18.8909 19.2121C19.0845 19.2001 19.2154 19.0461 19.2217 18.8426C19.229 18.6224 19.2233 18.4022 19.2233 18.1674L19.2238 18.1679ZM9.84828 13.2388C10.3471 13.1423 10.8147 12.6726 10.8961 12.191C10.656 12.191 10.4176 12.18 10.1812 12.1941C9.9876 12.2056 9.85663 12.3595 9.84985 12.563C9.84306 12.7832 9.84828 13.0035 9.84828 13.2383V13.2388ZM19.2238 13.2383C19.2238 13.0029 19.2295 12.7827 19.2222 12.5625C19.2154 12.3595 19.0834 12.2056 18.8898 12.1941C18.6534 12.18 18.4155 12.191 18.1755 12.191C18.26 12.6752 18.7302 13.1464 19.2238 13.2383ZM3.12047 18.4539H2.36018C2.30539 18.972 2.42436 19.2131 2.73067 19.2178C3.0328 19.222 3.14708 19.0033 3.11994 18.4539H3.12047ZM8.28647 18.4419C8.3016 18.708 8.19934 18.9872 8.48007 19.162C8.62775 19.2543 8.78324 19.2397 8.91631 19.1296C9.14799 18.9386 9.04468 18.6824 9.06451 18.4413H8.28647V18.4419Z" fill="black"/>
<path id="Vector_2" d="M0.00195312 11.6801C0.0233477 11.6493 0.0447422 11.6175 0.0671804 11.5872C0.177806 11.4359 0.323923 11.3691 0.506038 11.428C0.685022 11.486 0.783645 11.618 0.77947 11.8069C0.775296 11.9869 0.677194 12.1121 0.506038 12.1664C0.323402 12.2243 0.177806 12.1586 0.0671804 12.0073C0.0447422 11.977 0.0238695 11.9457 0.00195312 11.9144C0.00195312 11.8361 0.00195312 11.7583 0.00195312 11.6801Z" fill="black"/>
<path id="Vector_3" d="M5.6972 16.194C5.38463 16.194 5.07207 16.1977 4.76002 16.194C4.02686 16.1852 3.68663 15.594 4.04982 14.961C4.36708 14.4084 4.68487 13.8563 5.00527 13.3058C5.35959 12.6973 6.05255 12.6968 6.40687 13.3047C6.73092 13.8605 7.0534 14.4178 7.37276 14.9766C7.71768 15.5804 7.38633 16.1753 6.69284 16.193C6.36096 16.2013 6.02908 16.1946 5.6972 16.1946V16.194ZM5.70659 13.6538C5.36324 14.2487 5.03814 14.8117 4.70261 15.3925H6.71057C6.37139 14.805 6.04786 14.2451 5.70607 13.6538H5.70659Z" fill="black"/>
<path id="Vector_4" d="M6.52667 9.12833C6.52667 8.79019 6.52458 8.45206 6.52719 8.11392C6.52928 7.80918 6.67748 7.6615 6.98639 7.66046C7.65015 7.65785 8.31337 7.65837 8.97713 7.66046C9.29387 7.6615 9.44468 7.80918 9.44624 8.12644C9.44989 8.78967 9.44989 9.45343 9.44624 10.1167C9.44468 10.4318 9.29179 10.58 8.97453 10.5811C8.31077 10.5832 7.64754 10.5837 6.98378 10.5811C6.67643 10.5795 6.52928 10.4297 6.52719 10.1245C6.5251 9.79261 6.52719 9.46125 6.52719 9.12938L6.52667 9.12833ZM8.65569 8.45623H7.32349V9.78322H8.65569V8.45623Z" fill="black"/>
<path id="Vector_5" d="M5.28444 10.8663C5.28131 11.743 4.56381 12.4573 3.69342 12.4506C2.82041 12.4438 2.10918 11.7252 2.11231 10.8533C2.11492 9.98236 2.83815 9.26434 3.70698 9.26956C4.58259 9.27478 5.28757 9.9881 5.28444 10.8663ZM4.50276 10.8575C4.50171 10.4118 4.13905 10.0481 3.69759 10.0507C3.25614 10.0528 2.89243 10.4196 2.89348 10.8621C2.89452 11.3041 3.26188 11.6704 3.70177 11.6694C4.14427 11.6678 4.5038 11.3041 4.50276 10.858V10.8575Z" fill="black"/>
</g>
</svg>
