<svg width="24" height="20" viewBox="0 0 24 20" fill="none" xmlns="http://www.w3.org/2000/svg">
<g opacity="0.5" clip-path="url(#clip0_33_643)">
<path d="M11.6359 19.0647C8.79824 19.0647 5.96124 19.0647 3.12357 19.0647C1.36196 19.064 0.000138464 17.7009 -0.00118755 15.9366C-0.00251356 13.4802 -0.00185056 11.0238 -0.00118755 8.56734C-0.00118755 8.02301 0.286558 7.60266 0.748011 7.46011C1.43422 7.24928 2.11977 7.74521 2.12309 8.46523C2.12839 9.59035 2.12441 10.7148 2.12441 11.8399C2.12441 13.1878 2.12441 14.5364 2.12441 15.8843C2.12441 16.5406 2.5189 16.9378 3.16666 16.9378C8.82476 16.9378 14.4829 16.9378 20.1416 16.9378C20.7934 16.9378 21.1898 16.5426 21.1898 15.8896C21.1898 13.4497 21.2011 11.0098 21.1819 8.56999C21.1773 7.98124 21.5797 7.42365 22.244 7.41039C22.854 7.39779 23.3155 7.89704 23.3161 8.56137C23.3181 11.0423 23.3214 13.524 23.3155 16.0049C23.3115 17.6896 21.9304 19.0621 20.2464 19.0634C17.3756 19.0654 14.5054 19.0634 11.6346 19.0634L11.6359 19.0647Z" fill="black"/>
<path d="M10.5964 3.65069C10.0693 4.17247 9.59791 4.64785 9.11656 5.11328C8.63257 5.58136 7.90393 5.53097 7.50413 5.01184C7.17594 4.58486 7.21705 4.0107 7.6248 3.59168C8.36936 2.82723 9.12187 2.07074 9.87107 1.31027C10.1555 1.0212 10.4379 0.730806 10.723 0.442398C11.3025 -0.145026 11.9575 -0.147678 12.5417 0.435768C13.5779 1.47072 14.6116 2.50766 15.6492 3.54063C15.9449 3.83567 16.0927 4.17778 16.0012 4.59481C15.9124 4.99924 15.6604 5.27704 15.2646 5.39108C14.8721 5.50446 14.5095 5.41893 14.2131 5.12455C13.7967 4.71017 13.3843 4.29182 12.97 3.87611C12.9063 3.81246 12.84 3.75146 12.7227 3.63942V3.97622C12.7227 6.82185 12.7233 9.66747 12.7207 12.5131C12.7207 12.6855 12.7147 12.8645 12.6683 13.0283C12.5284 13.5195 12.061 13.8159 11.5438 13.7642C11.0439 13.7145 10.6614 13.3326 10.6097 12.8274C10.5971 12.704 10.5971 12.5794 10.5964 12.4561C10.5957 9.63499 10.5964 6.81456 10.5964 3.99346V3.65069Z" fill="black"/>
</g>
<defs>
<clipPath id="clip0_33_643">
<rect width="23.3219" height="19.0667" fill="white"/>
</clipPath>
</defs>
</svg>
