<svg width="23" height="20" viewBox="0 0 23 20" fill="none" xmlns="http://www.w3.org/2000/svg">
<path d="M0.00300569 7.02527C0.00477997 6.64203 0.00655434 6.26292 0.0118772 5.85661C0.0313943 4.45729 0.773044 3.53349 2.12564 3.53112C3.18074 3.52935 4.23526 3.53112 5.29036 3.53112C5.36843 3.53112 5.4465 3.53112 5.53876 3.53112C5.53876 3.04319 5.53581 2.58661 5.53936 2.13003C5.54882 0.9454 6.43064 0.0192256 7.61112 0.0115371C10.0969 -0.00443144 12.5827 -0.00324859 15.069 0.0115371C16.1158 0.0174514 16.948 0.748455 17.1 1.78404C17.1603 2.19627 17.129 2.6221 17.1372 3.04201C17.1402 3.20051 17.1372 3.35961 17.1372 3.53171C17.2591 3.53171 17.3466 3.53171 17.4341 3.53171C18.5768 3.5323 19.7194 3.52225 20.8615 3.53881C21.7415 3.55123 22.4423 4.20535 22.6198 5.06765C22.6204 5.0706 22.621 5.07356 22.6215 5.07652C22.6523 5.20841 22.6712 5.34325 22.6712 5.47869V8.55293C22.6712 8.97994 22.5902 9.40517 22.4128 9.79374C22.2892 10.0646 22.1289 10.3189 21.9254 10.5537C21.8527 10.6377 21.7918 10.7956 21.7912 10.9068C21.7835 13.2228 21.7859 15.5395 21.7853 17.8555C21.7853 19.1625 20.949 20 19.6425 20C14.1026 20 8.56273 20 3.02283 20C1.73116 20 0.889555 19.1584 0.889555 17.8679C0.889555 15.5442 0.891329 13.2205 0.884232 10.8973C0.884232 10.7938 0.828047 10.6448 0.761215 10.5661C0.228339 9.9416 0.0266629 9.23129 0.00773721 8.38141C0.000640087 8.0579 -0.00113436 7.75982 0.000639924 7.43868L0.00241413 7.02645L0.00300569 7.02527ZM13.6401 11.9773C15.3281 11.8413 16.958 11.6006 18.5306 11.0612C19.3007 10.7968 20.0411 10.4697 20.6645 9.92859C21.1158 9.53647 21.3659 9.06333 21.3494 8.43997C21.3251 7.49664 21.3441 6.55154 21.3429 5.60762C21.3423 5.12738 21.0844 4.86006 20.6119 4.86006C14.4303 4.85887 8.24868 4.85887 2.06709 4.86006C1.59276 4.86006 1.33431 5.1262 1.33372 5.60525C1.33253 6.55686 1.34909 7.50906 1.32721 8.46007C1.3142 9.03849 1.53717 9.48738 1.94584 9.86708C2.35629 10.2485 2.83712 10.5188 3.34457 10.7436C4.48484 11.2481 5.68662 11.5373 6.91265 11.7265C7.60935 11.8336 8.31078 11.9063 9.03646 11.998C9.03646 11.7744 9.03469 11.5917 9.03646 11.4089C9.04179 10.9855 9.30438 10.7081 9.72252 10.7063C10.7995 10.7016 11.8765 10.7016 12.9535 10.7063C13.3716 10.7081 13.6342 10.9849 13.6395 11.4083C13.6419 11.5911 13.6395 11.7744 13.6395 11.9785L13.6401 11.9773ZM20.4581 11.6893C20.4072 11.7058 20.386 11.71 20.3676 11.7194C19.3113 12.2641 18.1882 12.6225 17.0249 12.8319C15.9893 13.0182 14.9407 13.1347 13.8986 13.2861C13.7667 13.305 13.6165 13.2571 13.5526 13.4689C13.2681 14.4116 12.6223 14.9468 11.647 15.0705C10.4766 15.2189 9.441 14.5778 9.13286 13.5109C9.08733 13.3541 9.01635 13.3027 8.86672 13.2879C8.28712 13.2311 7.70694 13.1755 7.1297 13.0992C5.59672 12.8964 4.1016 12.5462 2.68868 11.8974C2.53786 11.8283 2.38823 11.7561 2.21908 11.6763V11.9069C2.21908 13.8988 2.21908 15.8908 2.21908 17.8827C2.21908 18.4132 2.47517 18.6711 3.0045 18.6711C8.55977 18.6711 14.115 18.6711 19.6703 18.6711C20.2014 18.6711 20.4581 18.4144 20.4587 17.8851C20.4587 16.6679 20.4587 15.4507 20.4587 14.233V11.6893H20.4581ZM15.8095 3.52107C15.8095 3.0769 15.8095 2.65699 15.8095 2.23708C15.8095 1.6214 15.5191 1.33338 14.8999 1.33338C13.1889 1.33338 11.4779 1.33338 9.76688 1.33338C9.07372 1.33338 8.38057 1.33101 7.68683 1.33456C7.26573 1.33633 6.91915 1.57113 6.89017 1.95201C6.85055 2.46951 6.88012 2.99174 6.88012 3.52166H15.8095V3.52107ZM10.3642 12.0418C10.3642 12.3363 10.3595 12.6143 10.3654 12.8928C10.3755 13.3677 10.7203 13.722 11.1981 13.7563C11.7955 13.7989 12.229 13.5339 12.2923 13.0383C12.3337 12.7148 12.3 12.3818 12.3 12.0423H10.3642V12.0418Z" fill="black"/>
</svg>
