<svg width="29" height="20" viewBox="0 0 29 20" fill="none" xmlns="http://www.w3.org/2000/svg">
<g id="Group 33706">
<g id="Group 33713">
<path id="Vector" d="M23.8466 1.764C23.8466 1.33354 23.8449 0.982524 23.8466 0.632317C23.849 0.166997 24.0038 0.00405332 24.4594 0.00243199C25.5319 -0.000810663 26.6036 -0.000810663 27.6761 0.00243199C28.1139 0.00405332 28.2874 0.176725 28.2874 0.607997C28.289 3.53125 28.289 6.45369 28.2874 9.37694C28.2874 9.81227 28.1147 9.99061 27.6842 9.99223C26.602 9.99629 25.5198 9.99629 24.4367 9.99223C24.0184 9.99061 23.8498 9.81794 23.8458 9.40045C23.8425 9.02835 23.8458 8.65545 23.8458 8.28579C23.3132 8.23228 22.7992 8.20796 22.2966 8.12203C21.901 8.05475 21.4948 7.96152 21.1357 7.79047C20.2472 7.36893 19.2955 7.25706 18.3422 7.15815C17.7204 7.0933 17.0921 7.09411 16.4558 7.06412C16.3933 7.4735 16.3577 7.85289 16.2742 8.22256C15.6872 10.8256 13.3071 12.622 10.6474 12.4802C8.00216 12.3399 5.83688 10.3149 5.50937 7.67536C5.04405 3.91875 8.46748 0.826066 12.1528 1.68213C12.4057 1.7413 12.6132 1.7259 12.8402 1.5962C13.2869 1.34003 13.7465 1.10737 14.2053 0.871463C15.2284 0.346153 16.3252 0.243199 17.4504 0.319401C19.1301 0.432894 20.7231 0.901457 22.299 1.46487C22.7724 1.6343 23.2969 1.66267 23.8449 1.764H23.8466ZM13.9978 3.73959C12.7154 2.44253 10.3166 2.00882 8.43262 3.28886C6.53486 4.57862 5.90821 7.03574 6.94343 9.05997C7.97297 11.0728 10.3304 12.0092 12.4649 11.252C14.2248 10.6278 15.7026 8.53061 15.3922 7.06493C14.4818 7.09979 13.7165 6.81443 13.3914 5.88947C13.0996 5.05935 13.299 4.31435 13.9978 3.73959ZM13.753 2.25851C14.1146 2.56413 14.4834 2.89245 14.8733 3.19482C15.012 3.30264 15.1992 3.40154 15.3678 3.40803C16.3082 3.44208 17.2486 3.44613 18.1898 3.46072C18.2911 3.46234 18.3924 3.46072 18.4929 3.46802C18.8359 3.49315 19.0288 3.67798 19.0215 3.96901C19.0142 4.25841 18.8132 4.43757 18.467 4.43433C17.5258 4.42622 16.5855 4.40758 15.6451 4.39704C15.4035 4.3946 15.1595 4.38731 14.9195 4.41325C14.5507 4.45216 14.297 4.72617 14.2589 5.09015C14.1964 5.69004 14.5045 6.06052 15.1173 6.08322C16.168 6.12213 17.2218 6.10835 18.2692 6.18374C19.3668 6.26318 20.4548 6.41234 21.4794 6.88334C22.2123 7.21977 23.0059 7.31299 23.8304 7.25462V2.70518C23.6715 2.68816 23.5207 2.68248 23.3739 2.65411C22.8697 2.55764 22.3598 2.48063 21.8653 2.34768C20.8333 2.06962 19.8216 1.7032 18.7783 1.47784C17.0102 1.09602 15.273 1.10574 13.753 2.2577V2.25851ZM24.8356 0.987388V9.00322H27.2959V0.987388H24.8356Z" fill="black"/>
<path id="Vector_2" d="M15.0346 14.5042C15.8104 14.1102 16.5829 13.7178 17.3563 13.3246C17.9594 13.0182 18.5601 12.7069 19.1649 12.4037C20.1442 11.9125 21.2151 12.2319 21.6885 13.152C22.1635 14.0737 21.802 15.1397 20.834 15.6415C18.5658 16.8178 16.2984 17.9949 14.0228 19.1574C13.0201 19.6697 11.9346 19.7548 10.8305 19.6819C9.20265 19.5732 7.65671 19.1217 6.12537 18.5842C5.6106 18.4034 5.05124 18.3467 4.44162 18.2186C4.44162 18.6466 4.44162 18.9839 4.44162 19.3219C4.44 19.857 4.29651 19.9988 3.75337 19.9988C2.7214 19.9996 1.69023 20.0005 0.658258 19.9988C0.160511 19.998 0 19.8391 0 19.3487C0 16.457 0 13.5646 0 10.673C0 10.1752 0.15889 10.0098 0.644477 10.009C1.69672 10.0074 2.74815 10.0074 3.80039 10.009C4.2803 10.0098 4.43919 10.1687 4.44162 10.6422C4.44405 11.0037 4.44162 11.3653 4.44162 11.7179C4.98152 11.7722 5.49548 11.7957 5.99891 11.8825C6.3937 11.9498 6.80065 12.0438 7.15897 12.2148C8.05718 12.6429 9.017 12.7693 9.9825 12.8439C10.9488 12.9185 11.9216 12.9112 12.892 12.9396C14.1858 12.9777 14.6049 13.2809 15.0337 14.505L15.0346 14.5042ZM4.45946 17.2912C4.58916 17.3082 4.70752 17.3301 4.82669 17.3374C5.45576 17.3763 6.06133 17.502 6.65554 17.7257C8.01259 18.2364 9.40856 18.6012 10.8605 18.7099C11.8195 18.7812 12.7606 18.7172 13.637 18.2632C14.7314 17.6957 15.8225 17.1234 16.9177 16.5584C18.0664 15.9658 19.2192 15.3805 20.3687 14.7879C20.774 14.5787 20.9589 14.2642 20.9143 13.8945C20.8381 13.2647 20.2179 12.9598 19.6067 13.2687C18.047 14.0567 16.4913 14.8519 14.9365 15.6496C14.8335 15.7023 14.7379 15.7882 14.6649 15.8798C14.2717 16.3776 13.757 16.6038 13.1303 16.5932C12.0789 16.5762 11.0266 16.5584 9.97521 16.5381C9.86415 16.5357 9.75147 16.5332 9.64365 16.5097C9.37694 16.4506 9.24723 16.2698 9.2675 16.0039C9.28696 15.7501 9.43774 15.6002 9.69472 15.5718C9.7847 15.5621 9.87631 15.5669 9.9671 15.5686C11.0088 15.5856 12.0505 15.601 13.0922 15.6204C13.4238 15.6269 13.7164 15.5556 13.9037 15.2524C14.2774 14.6476 13.9183 13.9521 13.2025 13.9229C12.1316 13.8791 11.0574 13.8945 9.9898 13.8151C8.90351 13.7348 7.82533 13.5857 6.81038 13.1187C6.07835 12.7823 5.28471 12.6866 4.46027 12.7483V17.2912H4.45946ZM3.45424 19.0131V10.9964H0.992252V19.0131H3.45342H3.45424Z" fill="black"/>
<path id="Vector_3" d="M11.7229 8.27866C11.7229 7.87008 11.4351 7.55636 11.0209 7.50366C10.8117 7.47691 10.5961 7.45908 10.3967 7.39504C9.693 7.1721 9.23822 6.56086 9.19282 5.80938C9.15228 5.13491 9.54302 4.458 10.181 4.17103C10.4048 4.07051 10.4883 3.95053 10.4591 3.71787C10.4469 3.61978 10.4575 3.51439 10.4802 3.41792C10.5393 3.16824 10.7161 3.03205 10.9633 3.04421C11.2227 3.05718 11.4302 3.21039 11.4116 3.48115C11.384 3.88 11.5008 4.11185 11.8891 4.28209C12.125 4.38585 12.3058 4.65499 12.4647 4.88198C12.6462 5.14058 12.5741 5.41864 12.3398 5.56942C12.108 5.71858 11.8591 5.63346 11.6483 5.40729C11.4854 5.23219 11.2811 5.04411 11.0614 4.9825C10.6609 4.86982 10.2751 5.16571 10.1834 5.5751C10.0918 5.98205 10.3237 6.3736 10.7323 6.49034C10.8279 6.5179 10.9301 6.52844 11.0306 6.53492C11.8518 6.5868 12.5125 7.15346 12.6714 7.9471C12.8278 8.73101 12.4266 9.536 11.6783 9.86837C11.4732 9.95916 11.3994 10.0654 11.4246 10.2737C11.4351 10.3629 11.4302 10.4561 11.4189 10.5461C11.3873 10.7998 11.2406 10.9522 10.986 10.9725C10.7161 10.9944 10.4696 10.8485 10.4915 10.598C10.5369 10.084 10.2532 9.87729 9.87296 9.6503C9.65571 9.52059 9.49925 9.25875 9.36387 9.02771C9.2066 8.76019 9.30388 8.48294 9.54789 8.35243C9.79676 8.21948 10.057 8.2973 10.211 8.57698C10.3829 8.88828 10.6188 9.06581 10.9884 9.04636C11.41 9.02447 11.7213 8.70507 11.7213 8.27866H11.7229Z" fill="black"/>
<path id="Vector_4" d="M26.5453 7.04804C26.5453 7.38122 26.5526 7.7144 26.5428 8.04759C26.5339 8.34915 26.3515 8.53723 26.0848 8.54777C25.8051 8.55831 25.5895 8.36942 25.583 8.05732C25.5684 7.39095 25.5692 6.72459 25.5822 6.05822C25.5879 5.74206 25.7938 5.5548 26.0759 5.55966C26.3572 5.56453 26.5363 5.75503 26.5445 6.07849C26.5526 6.40113 26.5461 6.72459 26.5461 7.04804H26.5453Z" fill="black"/>
<path id="Vector_5" d="M1.74384 12.9284C1.74384 12.6049 1.73654 12.2823 1.74627 11.9588C1.75519 11.6548 1.93272 11.4667 2.19862 11.4538C2.47911 11.4408 2.6988 11.6272 2.70609 11.9385C2.7215 12.6049 2.72069 13.2713 2.70853 13.9376C2.70285 14.2562 2.501 14.4443 2.2197 14.4419C1.9384 14.4394 1.75438 14.2489 1.74627 13.9279C1.73735 13.5947 1.74465 13.2615 1.74465 12.9284H1.74384Z" fill="black"/>
</g>
</g>
</svg>
