<svg width="20" height="20" viewBox="0 0 20 20" fill="none" xmlns="http://www.w3.org/2000/svg">
<g id="Group 33711">
<path id="Vector" d="M19.944 10.3311C19.6289 10.9916 19.0909 11.4837 18.6383 12.039C17.8794 12.9707 17.0935 13.8801 16.33 14.8082C15.6221 15.6692 14.7055 16.0811 13.607 16.0884C11.9242 16.0999 10.2414 16.1056 8.55912 16.0837C7.97944 16.0759 7.62214 16.4009 7.26954 16.7723C7.24298 16.8004 7.24402 16.8681 7.25288 16.9139C7.3409 17.3712 7.21954 17.7572 6.88413 18.0837C6.29298 18.6593 5.70861 19.2421 5.11954 19.8197C5.05132 19.8869 4.96954 19.9405 4.89402 19.9999H4.66017C4.54402 19.8983 4.42111 19.803 4.31225 19.6936C2.94246 18.3166 1.57423 16.9374 0.205998 15.5582C-0.0669183 15.2832 -0.06848 15.0999 0.20027 14.8301C0.768499 14.2593 1.33985 13.691 1.90548 13.1171C2.18048 12.8379 2.50079 12.69 2.89819 12.7067C2.95809 12.7093 3.04871 12.6629 3.07787 12.6119C4.37319 10.34 7.20287 9.78218 9.23725 10.5639C9.33725 10.6025 9.45131 10.6181 9.55913 10.6186C10.8909 10.6223 12.2227 10.627 13.555 10.6181C14.0977 10.6145 14.5659 10.7619 14.994 11.2603C15.0274 11.1858 15.0399 11.1119 15.0831 11.0671C15.805 10.3192 16.5315 9.57541 17.255 8.82906C18.1248 7.93166 19.4383 8.18843 19.9102 9.34937C19.9169 9.36655 19.932 9.3801 19.9435 9.3952V10.3306L19.944 10.3311ZM6.73725 16.1598C6.76017 16.1515 6.77475 16.1499 6.7836 16.1421C6.82735 16.1035 6.87319 16.0666 6.91225 16.0238C7.39089 15.502 7.98048 15.2952 8.68933 15.3046C10.3065 15.327 11.9242 15.3134 13.5414 15.3108C14.4357 15.3093 15.1846 14.9968 15.7524 14.2822C16.0914 13.8551 16.4503 13.4436 16.8008 13.0254C17.5383 12.1436 18.2779 11.264 19.0128 10.3796C19.3039 10.0291 19.2753 9.56447 18.9576 9.27593C18.6456 8.99259 18.1747 9.00666 17.8685 9.31968C17.0331 10.1744 16.2008 11.0322 15.3706 11.8916C15.3305 11.9332 15.2961 12.0004 15.2945 12.0567C15.2695 13.1353 14.6461 13.7483 13.5664 13.7488C12.618 13.7488 11.6695 13.7488 10.7211 13.7488C10.6435 13.7488 10.5643 13.7488 10.4883 13.7358C10.2836 13.7009 10.1518 13.539 10.1586 13.341C10.1659 13.1431 10.307 12.9952 10.5164 12.9723C10.5873 12.9645 10.6591 12.9655 10.7305 12.9655C11.6852 12.9655 12.6404 12.9655 13.5951 12.9645C13.6794 12.9645 13.7643 12.9629 13.8477 12.9509C14.2169 12.8988 14.4893 12.5988 14.5143 12.2218C14.5373 11.8796 14.2992 11.5337 13.9596 11.4405C13.8367 11.4067 13.7029 11.4025 13.5737 11.402C12.1966 11.3994 10.8195 11.402 9.44246 11.3978C9.31538 11.3978 9.17944 11.3827 9.06329 11.3353C8.19923 10.9811 7.31017 10.9306 6.406 11.1176C5.26746 11.3535 4.38464 11.9624 3.77944 12.9655C3.7086 13.0832 3.71902 13.1504 3.81798 13.2442C4.09194 13.503 4.35392 13.7738 4.62006 14.0405C5.32683 14.7478 6.03308 15.4556 6.73673 16.1598H6.73725ZM4.8685 19.0598C5.36433 18.5421 5.88777 18.0014 6.40339 17.453C6.56641 17.2796 6.53673 17.0619 6.34142 16.8666C5.27163 15.7952 4.20079 14.7249 3.12944 13.6556C2.90183 13.4285 2.70392 13.4301 2.47371 13.6587C2.1284 14.0025 1.78725 14.3504 1.44038 14.6931C1.27579 14.8556 1.10391 15.0108 0.914852 15.1884C2.23204 16.478 3.51694 17.7363 4.86798 19.0598H4.8685Z" fill="black"/>
<path id="Vector_2" d="M11.6305 8.58699C9.2529 8.58178 7.33935 6.65521 7.34768 4.27605C7.35602 1.91198 9.28363 -0.00415988 11.6498 6.78247e-06C14.0216 0.00417345 15.942 1.93855 15.9326 4.31459C15.9232 6.6823 14.0003 8.59219 11.6305 8.58699ZM11.6399 7.80678C13.5779 7.80678 15.1477 6.24219 15.1519 4.30521C15.156 2.36042 13.5826 0.781257 11.6404 0.781257C9.70602 0.781257 8.13154 2.35209 8.12841 4.28542C8.12529 6.23334 9.69404 7.80678 11.6399 7.80678Z" fill="black"/>
<path id="Vector_3" d="M9.30352 13.2959C9.29988 13.5073 9.12956 13.6782 8.92019 13.6797C8.70769 13.6813 8.52227 13.4938 8.52644 13.2818C8.5306 13.0662 8.71498 12.8943 8.93373 12.9026C9.14623 12.9104 9.30665 13.0813 9.303 13.2959H9.30352Z" fill="black"/>
<path id="Vector_4" d="M11.1725 2.39331C11.1725 2.25633 11.1688 2.11362 11.1735 1.97091C11.1808 1.73549 11.3428 1.5657 11.5568 1.56205C11.7725 1.55893 11.9652 1.72872 11.9454 1.95893C11.9193 2.25945 11.9735 2.47976 12.2917 2.58393C12.3782 2.61205 12.4506 2.69539 12.5193 2.76362C12.6813 2.92455 12.6886 3.14539 12.5443 3.3058C12.4073 3.45789 12.1922 3.47716 12.0162 3.35216C11.937 3.29591 11.8631 3.23028 11.7787 3.18341C11.6162 3.0933 11.4532 3.09747 11.3084 3.22404C11.1849 3.33185 11.1396 3.47091 11.1922 3.62872C11.2527 3.80893 11.3855 3.8907 11.5751 3.90476C12.1766 3.94903 12.5912 4.29799 12.7094 4.85008C12.8204 5.36726 12.5688 5.85685 12.0568 6.14122C12.0084 6.1683 11.9646 6.2407 11.9568 6.29747C11.9412 6.41257 11.9568 6.53081 11.9501 6.64747C11.9365 6.87351 11.7761 7.02455 11.5594 7.02351C11.3438 7.02247 11.1568 6.86518 11.1803 6.64278C11.2146 6.31882 11.1209 6.11726 10.8094 5.98758C10.6693 5.92924 10.5573 5.78497 10.4547 5.66153C10.3157 5.49435 10.3428 5.27507 10.4959 5.13601C10.6506 4.99591 10.86 4.99799 11.0256 5.1433C11.1131 5.22039 11.1917 5.30997 11.2876 5.37456C11.4501 5.48393 11.6277 5.50997 11.7954 5.38393C11.9323 5.2808 11.9855 5.13601 11.9339 4.96935C11.8719 4.76882 11.7178 4.69435 11.5172 4.6808C10.6495 4.62195 10.1329 3.74903 10.5146 2.9907C10.6386 2.74382 10.7745 2.61987 11.1725 2.39383V2.39331Z" fill="black"/>
</g>
</svg>
