<svg width="18" height="18" viewBox="0 0 18 18" fill="none" xmlns="http://www.w3.org/2000/svg">
<path d="M15.3351 2.64655C13.5017 0.813138 10.9034 -0.244168 8.0464 0.0482783C3.91841 0.464452 0.521527 3.81634 0.0603609 7.94434C-0.558276 13.3996 3.6597 18 8.97998 18C12.5681 18 15.65 15.8966 17.0898 12.8709C17.4497 12.1173 16.9098 11.2512 16.0774 11.2512C15.6613 11.2512 15.2676 11.4762 15.0876 11.8474C13.8166 14.5806 10.7684 16.3128 7.43901 15.5704C4.94197 15.0193 2.92859 12.9834 2.39993 10.4864C1.45511 6.12217 4.77325 2.25288 8.97998 2.25288C10.8471 2.25288 12.5118 3.02898 13.7266 4.25501L12.0282 5.95345C11.3196 6.66207 11.8145 7.87685 12.8155 7.87685H16.8535C17.4722 7.87685 17.9783 7.37069 17.9783 6.75205V2.71404C17.9783 1.71297 16.7636 1.20682 16.0549 1.91544L15.3351 2.64655Z" fill="#323232"/>
</svg>
