<svg width="20" height="20" viewBox="0 0 20 20" fill="none" xmlns="http://www.w3.org/2000/svg">
<g id="Group 33708">
<path id="Vector" d="M15.5434 19.9979H14.6842C14.6409 19.9864 14.5986 19.9687 14.5548 19.964C13.6127 19.8555 12.7749 19.4987 12.0388 18.9024C11.346 18.3411 10.8494 17.6368 10.5275 16.7954H10.2927C7.47518 16.7954 4.65709 16.7964 1.83953 16.7954C0.752878 16.7954 0.00114506 16.041 0.000623384 14.9523C-0.000419966 11.106 -0.000417928 7.25966 0.00271212 3.41283C0.00271212 3.21929 0.0173193 3.02053 0.0616616 2.83273C0.291198 1.85616 1.13162 1.18737 2.13584 1.17276C2.51145 1.16755 2.88705 1.17172 3.28091 1.17172C3.28091 0.971918 3.27831 0.791418 3.28144 0.610397C3.28717 0.261397 3.53289 0.00368959 3.85998 3.78683e-05C4.19437 -0.00361385 4.44634 0.257223 4.45208 0.617179C4.45469 0.797157 4.45208 0.977134 4.45208 1.15763H6.5612C6.5612 1.07938 6.5612 1.01522 6.5612 0.950529C6.56225 0.277569 6.73701 -0.00361385 7.15227 0.000559542C7.56178 0.00421126 7.73237 0.280699 7.73289 0.94166C7.73289 1.01626 7.73289 1.09086 7.73289 1.16076H9.84202C9.84202 0.981829 9.84097 0.814372 9.84202 0.646393C9.84462 0.266614 10.0836 0.00212457 10.4247 0.00108122C10.7664 -0.000483807 11.0095 0.263484 11.0127 0.641698C11.0142 0.814894 11.0127 0.987568 11.0127 1.15711H13.1218C13.1218 0.966179 13.1197 0.790897 13.1218 0.615614C13.127 0.265049 13.3696 0.00734131 13.6967 0.00160289C14.0311 -0.0046572 14.2862 0.256702 14.2924 0.615092C14.2956 0.795592 14.2929 0.975569 14.2929 1.17328C14.6566 1.17328 14.9998 1.1665 15.3431 1.17589C15.5366 1.18111 15.7349 1.19311 15.9221 1.23797C16.9222 1.47846 17.5712 2.32201 17.5727 3.37788C17.5753 5.82506 17.5743 8.27223 17.5717 10.7194C17.5717 10.8383 17.5931 10.9171 17.7063 10.9891C18.7214 11.6355 19.4205 12.5317 19.7721 13.6851C19.8717 14.0117 19.9218 14.3529 19.9948 14.6878V15.547C19.9828 15.5903 19.9667 15.6331 19.9599 15.6769C19.6584 17.7015 18.5389 19.062 16.6196 19.7543C16.2758 19.8784 15.9023 19.9202 15.5429 20L15.5434 19.9979ZM10.2479 15.6231C10.1357 13.9272 10.6704 12.4994 11.9579 11.4033C13.2491 10.3042 14.7494 10.0094 16.389 10.3928V6.26535H1.17179V6.47611C1.17179 9.28845 1.17179 12.1003 1.17179 14.9126C1.17179 15.4077 1.38828 15.6237 1.88596 15.6237C4.60023 15.6237 7.31398 15.6237 10.0283 15.6237H10.2479V15.6231ZM15.1224 11.4049C13.0827 11.4012 11.4128 13.0576 11.4039 15.0916C11.395 17.1423 13.0519 18.8184 15.0953 18.8257C17.1439 18.833 18.818 17.173 18.8237 15.1286C18.8294 13.08 17.1679 11.408 15.1224 11.4049ZM14.2935 2.34444C14.2935 2.53851 14.295 2.71275 14.2935 2.88699C14.2888 3.25111 14.0457 3.51195 13.7118 3.51404C13.3774 3.51612 13.128 3.25477 13.1228 2.89377C13.1202 2.71431 13.1228 2.53433 13.1228 2.35801H11.0137C11.0137 2.54842 11.0163 2.7237 11.0137 2.89898C11.008 3.2579 10.7539 3.51925 10.4195 3.51352C10.0924 3.5083 9.8488 3.25059 9.84358 2.90055C9.84097 2.72005 9.84358 2.54007 9.84358 2.3554H7.73445C7.73445 2.5359 7.73549 2.7044 7.73445 2.87238C7.73132 3.25059 7.48822 3.51456 7.14705 3.51352C6.80587 3.51247 6.56642 3.24798 6.56381 2.8682C6.56277 2.69553 6.56381 2.52286 6.56381 2.34236H4.45468C4.45468 2.44513 4.45468 2.52807 4.45468 2.61154C4.45468 3.23494 4.27732 3.50986 3.87354 3.51352C3.46872 3.51717 3.283 3.23651 3.283 2.62145C3.283 2.53277 3.283 2.44408 3.283 2.34653C2.85627 2.34653 2.45302 2.32775 2.05185 2.35123C1.574 2.3794 1.19683 2.791 1.177 3.27042C1.16866 3.47178 1.17439 3.67367 1.17439 3.87556C1.17439 4.27047 1.17439 4.66537 1.17439 5.06446H16.401C16.401 4.44158 16.4198 3.83017 16.3948 3.22086C16.3749 2.74248 15.9566 2.36114 15.4777 2.34601C15.0942 2.33401 14.7103 2.3434 14.2961 2.3434L14.2935 2.34444Z" fill="black"/>
<path id="Vector_2" d="M3.57363 10.3507C3.73587 10.3507 3.89811 10.3465 4.06035 10.3517C4.39266 10.3617 4.6441 10.6131 4.64671 10.9318C4.64932 11.2506 4.39944 11.5125 4.06974 11.5203C3.739 11.5281 3.40774 11.5281 3.077 11.5203C2.74834 11.5125 2.49741 11.249 2.50002 10.9313C2.50263 10.6136 2.75564 10.3617 3.0869 10.3517C3.24914 10.347 3.41139 10.3507 3.57363 10.3507Z" fill="black"/>
<path id="Vector_3" d="M7.04809 10.3505C7.21033 10.3505 7.37257 10.3468 7.53481 10.3515C7.86712 10.3609 8.11961 10.6113 8.12274 10.9301C8.12639 11.2571 7.87129 11.5149 7.52803 11.5211C7.21033 11.5269 6.89211 11.5263 6.57441 11.5211C6.23062 11.5154 5.975 11.2592 5.97657 10.9332C5.97813 10.6077 6.23636 10.3583 6.58119 10.3515C6.73665 10.3484 6.89263 10.351 7.04861 10.3515L7.04809 10.3505Z" fill="black"/>
<path id="Vector_4" d="M10.5446 10.3507C10.7006 10.3507 10.856 10.3465 11.012 10.3517C11.3443 10.3617 11.5958 10.6131 11.5984 10.9318C11.601 11.2506 11.3511 11.5125 11.0214 11.5203C10.6907 11.5281 10.3594 11.5281 10.0287 11.5203C9.7 11.5125 9.44907 11.249 9.45168 10.9313C9.45429 10.6136 9.7073 10.3611 10.0386 10.3517C10.2071 10.347 10.3761 10.3507 10.5446 10.3507Z" fill="black"/>
<path id="Vector_5" d="M7.05167 7.71793C7.22069 7.71793 7.39024 7.71115 7.55926 7.7195C7.87644 7.73567 8.11328 7.97772 8.12267 8.2829C8.13206 8.58756 7.90983 8.85727 7.59317 8.87501C7.23008 8.89535 6.86439 8.89535 6.50131 8.87448C6.18674 8.85623 5.96502 8.58235 5.9765 8.27873C5.98798 7.97407 6.22638 7.73515 6.5446 7.72002C6.71363 7.71167 6.88317 7.71845 7.05219 7.71897L7.05167 7.71793Z" fill="black"/>
<path id="Vector_6" d="M10.5438 7.71767C10.7066 7.71767 10.8693 7.71089 11.0316 7.71924C11.3493 7.73489 11.5872 7.97433 11.5981 8.27951C11.6091 8.58417 11.3879 8.85649 11.0723 8.87422C10.7092 8.89509 10.3435 8.89509 9.9804 8.87422C9.66531 8.85649 9.44256 8.58522 9.45195 8.28108C9.46186 7.97642 9.69975 7.73489 10.0164 7.71924C10.1917 7.71037 10.3675 7.71767 10.5433 7.71767H10.5438Z" fill="black"/>
<path id="Vector_7" d="M14.0062 8.87952C13.8242 8.87952 13.6411 8.89308 13.46 8.87639C13.1439 8.8477 12.9201 8.58947 12.9279 8.28533C12.9358 7.98067 13.1726 7.73079 13.4887 7.72088C13.833 7.70992 14.1789 7.70888 14.5232 7.72192C14.83 7.7334 15.0611 7.97807 15.0741 8.27594C15.0871 8.5806 14.8665 8.84509 14.5519 8.87587C14.3714 8.8936 14.1883 8.879 14.0062 8.879V8.88004V8.87952Z" fill="black"/>
<path id="Vector_8" d="M3.56942 14.1516C3.38736 14.1516 3.20373 14.1662 3.02375 14.1485C2.71023 14.1177 2.48799 13.8532 2.50103 13.5491C2.51355 13.2517 2.74518 13.0055 3.0514 12.9945C3.40249 12.982 3.75462 12.981 4.10518 12.9956C4.40984 13.0081 4.63938 13.26 4.6472 13.5579C4.65503 13.8553 4.43957 14.1156 4.13492 14.1464C3.94816 14.1657 3.75827 14.15 3.56942 14.15C3.56942 14.1505 3.56942 14.1511 3.56942 14.1516Z" fill="black"/>
<path id="Vector_9" d="M7.06774 12.9906C7.2305 12.9906 7.39326 12.9838 7.5555 12.9922C7.8732 13.0078 8.11109 13.2473 8.12204 13.5525C8.133 13.8571 7.91181 14.1294 7.5962 14.1472C7.23311 14.168 6.86741 14.168 6.50433 14.1472C6.18924 14.1294 5.96648 13.8582 5.97587 13.554C5.98578 13.2494 6.22367 13.0078 6.54033 12.9922C6.71561 12.9833 6.89141 12.9906 7.06722 12.9906H7.06774Z" fill="black"/>
<path id="Vector_10" d="M15.7 14.5298C16.1445 14.5298 16.566 14.5293 16.988 14.5298C17.385 14.5309 17.6511 14.7656 17.6521 15.1136C17.6532 15.462 17.3866 15.7005 16.9917 15.701C16.3866 15.702 15.7814 15.7025 15.1763 15.701C14.7704 15.6999 14.5304 15.4626 14.5294 15.0609C14.5273 14.4427 14.5273 13.8245 14.5294 13.2063C14.531 12.8417 14.7746 12.5803 15.1085 12.5772C15.4502 12.5735 15.698 12.838 15.6995 13.2142C15.7016 13.643 15.7 14.0718 15.7 14.5298Z" fill="black"/>
</g>
</svg>
