<svg width="18" height="28" viewBox="0 0 18 28" fill="none" xmlns="http://www.w3.org/2000/svg">
<g id="Group 33712">
<path id="Vector" d="M14.3565 28C14.2922 27.9708 14.2279 27.9408 14.1629 27.9131C13.6385 27.6903 13.3273 27.3039 13.3069 26.7275C13.2886 26.2009 13.2886 25.6728 13.3054 25.1462C13.328 24.4194 13.9153 23.8577 14.6275 23.8569C15.3397 23.8562 15.9284 24.4186 15.9518 25.1447C15.9678 25.6348 15.962 26.1264 15.9561 26.6172C15.9488 27.2878 15.6282 27.7239 14.9927 27.9481C14.9606 27.9598 14.9328 27.9824 14.9029 28H14.3558H14.3565ZM15.1337 25.9416C15.1337 25.6962 15.1402 25.45 15.1322 25.2053C15.1213 24.892 14.9043 24.6765 14.6209 24.6823C14.3455 24.6874 14.133 24.8949 14.1271 25.1951C14.1176 25.6859 14.1169 26.1768 14.1271 26.6677C14.133 26.9664 14.3492 27.1738 14.6231 27.1768C14.9087 27.1797 15.1205 26.9671 15.1322 26.6516C15.1402 26.4157 15.1337 26.179 15.1337 25.9423V25.9416Z" fill="black"/>
<path id="Vector_2" d="M10.7475 27.9998C10.4955 27.8325 10.1931 27.7069 10.0061 27.4841C9.83881 27.2847 9.73801 26.9837 9.7161 26.7178C9.67227 26.1941 9.69272 25.6638 9.70587 25.1372C9.72267 24.4418 10.2807 23.8918 10.9827 23.8575C11.6532 23.8246 12.2843 24.3352 12.3376 25.0174C12.3822 25.5959 12.3771 26.181 12.3493 26.7609C12.3216 27.346 11.9826 27.7295 11.4399 27.9362C11.391 27.9552 11.3435 27.9786 11.2946 27.9998H10.7475ZM10.524 25.9056H10.5225C10.5225 26.1328 10.5225 26.3607 10.5225 26.5878C10.5225 26.6061 10.5225 26.6244 10.5225 26.6426C10.5364 26.9582 10.7402 27.1744 11.025 27.1766C11.299 27.1788 11.5225 26.9779 11.532 26.6762C11.5466 26.1766 11.5473 25.6755 11.532 25.1759C11.5225 24.8779 11.2902 24.6755 11.0185 24.6821C10.7431 24.6887 10.5356 24.8991 10.5254 25.1963C10.5174 25.4323 10.524 25.6689 10.524 25.9056Z" fill="black"/>
<path id="Vector_3" d="M8.96045 5.06518C13.4095 5.09951 17.0946 8.2813 17.7878 12.6866C18.5336 17.4293 15.1845 22.042 10.4389 22.8075C5.45582 23.611 0.830693 20.2765 0.103909 15.303C-0.285414 12.6384 0.423107 10.2491 2.1652 8.18342C2.26527 8.06509 2.44204 7.96429 2.59251 7.95041C2.69769 7.94091 2.8803 8.07385 2.91463 8.17904C2.95626 8.30978 2.92412 8.507 2.8467 8.6246C2.56767 9.04972 2.21925 9.43247 1.96141 9.86927C-0.932582 14.7632 1.9636 21.0114 7.57263 21.9931C11.9626 22.7615 16.1925 19.7755 16.9361 15.3841C17.6972 10.8838 14.6579 6.64658 10.1576 5.97604C8.08393 5.66706 6.15485 6.10094 4.40399 7.2711C4.05484 7.50411 3.8211 7.51361 3.66114 7.29375C3.49095 7.05855 3.57567 6.83796 3.94308 6.59107C5.4602 5.57138 7.13363 5.06445 8.96192 5.06445L8.96045 5.06518Z" fill="black"/>
<path id="Vector_4" d="M2.61533 13.5632C2.94841 13.6246 3.37498 13.4866 3.41589 13.9964C3.43853 14.2769 3.29171 14.3528 2.61971 14.4412C2.66281 15.2644 2.87975 16.0394 3.24935 16.7962C3.55832 16.6705 3.8673 16.3353 4.1602 16.7669C4.31797 16.9992 4.21498 17.1519 3.67811 17.5376C4.13902 18.2242 4.71241 18.7932 5.40414 19.265C5.61669 19.0116 5.7058 18.5536 6.18278 18.7859C6.43843 18.9108 6.42602 19.1007 6.15064 19.6909C6.88181 20.0612 7.65534 20.265 8.50703 20.3271C8.51507 20.1912 8.52018 20.0598 8.5326 19.929C8.55743 19.666 8.71666 19.5097 8.95333 19.5229C9.2046 19.5368 9.32658 19.688 9.34776 19.9283C9.35872 20.0524 9.36018 20.1781 9.36676 20.3227C10.2075 20.2738 10.9781 20.0634 11.7297 19.6953C11.6194 19.3841 11.2491 19.0328 11.7246 18.7793C12.1629 18.5463 12.2732 19.0087 12.466 19.2643C12.5566 19.2044 12.6303 19.1518 12.7078 19.1058C12.9276 18.9743 13.1585 19.0145 13.2885 19.203C13.4192 19.3936 13.3922 19.6419 13.1701 19.7756C12.6486 20.089 12.1358 20.4388 11.5749 20.6587C7.2463 22.3497 2.55397 19.6281 1.84399 15.0365C1.25891 11.25 3.93669 7.55906 7.7167 6.94476C11.7385 6.29102 15.4148 8.93812 16.0283 12.9672C16.3212 14.8904 15.8611 16.6552 14.7194 18.2366C14.5295 18.4995 14.3001 18.5624 14.0934 18.4185C13.875 18.2665 13.8619 18.0328 14.0569 17.7494C14.1029 17.6822 14.1482 17.615 14.2022 17.5361C13.9481 17.3235 13.4755 17.2264 13.7399 16.7406C13.8714 16.4989 14.0598 16.5179 14.6062 16.7845C14.9078 16.3783 15.1978 15.3543 15.2628 14.4383C15.1416 14.431 15.0203 14.4252 14.8991 14.4157C14.6149 14.393 14.4564 14.2382 14.4623 13.9927C14.4681 13.7597 14.623 13.6136 14.894 13.5947C15.0094 13.5866 15.1255 13.5932 15.265 13.5932C15.211 12.732 15.0035 11.9541 14.6325 11.2171C14.0408 11.4903 13.867 11.4961 13.7238 11.25C13.6252 11.0812 13.6347 10.9052 13.7749 10.773C13.8977 10.6576 14.0532 10.5765 14.2066 10.472C13.7406 9.78251 13.1723 9.21496 12.4791 8.74382C12.2586 8.99583 12.1548 9.48741 11.6618 9.19523C11.4324 9.05864 11.4565 8.86435 11.7356 8.32163C11.0007 7.93742 10.2199 7.74313 9.37698 7.67958C9.30832 8.00389 9.45952 8.49767 8.91096 8.47283C8.42888 8.45092 8.55524 8.01266 8.5158 7.68542C7.67214 7.72633 6.89934 7.9513 6.14188 8.31286C6.27847 8.62841 6.61958 8.96807 6.16525 9.2208C5.72553 9.46477 5.61304 9.00459 5.40925 8.7409C4.7146 9.20692 4.14267 9.78031 3.67592 10.4735C3.93376 10.6773 4.36691 10.7671 4.16531 11.231C4.05429 11.4866 3.87168 11.4793 3.2435 11.2215C2.87902 11.9534 2.6723 12.7262 2.6146 13.5669L2.61533 13.5632Z" fill="black"/>
<path id="Vector_5" d="M8.53092 11.2167C8.53092 10.7704 8.52654 10.3234 8.53239 9.87711C8.53677 9.55499 8.69454 9.38041 8.95531 9.38845C9.20366 9.39575 9.35047 9.56521 9.35193 9.87711C9.35705 10.7609 9.35778 11.6448 9.35048 12.5286C9.34902 12.6937 9.39503 12.7835 9.54988 12.8639C10.048 13.1246 10.3095 13.6615 10.2219 14.1852C10.1255 14.7652 9.72373 15.1728 9.14888 15.2743C8.60835 15.37 8.07075 15.1143 7.80414 14.6023C7.72087 14.4416 7.62372 14.4087 7.46449 14.4109C6.85384 14.4175 6.2432 14.4139 5.63255 14.4131C5.54125 14.4131 5.44921 14.4146 5.3601 14.4014C5.13001 14.3686 4.99707 14.2364 4.99707 13.999C4.99707 13.7623 5.13001 13.6155 5.36083 13.6001C5.66908 13.5797 5.98024 13.5885 6.28994 13.5863C6.5361 13.5848 6.78299 13.5731 7.02769 13.5892C7.41628 13.614 7.78223 13.6316 7.959 13.1699C7.99917 13.0647 8.12772 12.961 8.23875 12.9216C8.52216 12.82 8.54553 12.6199 8.53458 12.365C8.51778 11.983 8.53019 11.5995 8.53019 11.2167H8.53092ZM8.93632 14.4737C9.18612 14.4774 9.40891 14.2627 9.41621 14.0121C9.42352 13.7623 9.21315 13.5373 8.96115 13.5256C8.70185 13.5132 8.46665 13.7404 8.46738 14.0012C8.46738 14.2517 8.68505 14.4708 8.93632 14.4745V14.4737Z" fill="black"/>
<path id="Vector_6" d="M16.5522 2.08649C16.5522 2.35017 16.561 2.61386 16.5508 2.87755C16.5223 3.58315 15.9387 4.14194 15.2353 4.14705C14.5457 4.15216 13.9446 3.61602 13.9103 2.92065C13.8825 2.35821 13.8818 1.79285 13.9103 1.23042C13.9453 0.521892 14.5552 -0.0127871 15.2601 0.00328252C15.9628 0.0193521 16.5281 0.581789 16.5522 1.29543C16.561 1.55911 16.5537 1.8228 16.5537 2.08649C16.5537 2.08649 16.5537 2.08649 16.553 2.08649H16.5522ZM15.732 2.07626C15.732 1.83084 15.7393 1.58468 15.7305 1.33998C15.7195 1.04196 15.5114 0.832325 15.2367 0.826482C14.965 0.820638 14.7342 1.02735 14.7269 1.32172C14.7145 1.82134 14.7145 2.32169 14.7269 2.82204C14.7342 3.11859 14.9606 3.32604 15.2323 3.32311C15.5063 3.32019 15.7188 3.11056 15.7298 2.81327C15.7393 2.56784 15.732 2.32242 15.732 2.07699V2.07626Z" fill="black"/>
<path id="Vector_7" d="M1.32829 2.05415C1.32829 1.79923 1.32098 1.54358 1.32975 1.28866C1.35385 0.574291 1.92506 0.011853 2.62993 0.000166043C3.34137 -0.0107905 3.93887 0.521699 3.9732 1.23826C4.00023 1.79266 4.00023 2.35071 3.9732 2.90511C3.93814 3.61729 3.32238 4.16366 2.62482 4.14247C1.91556 4.12056 1.3524 3.56105 1.32902 2.84668C1.32026 2.58299 1.32756 2.31784 1.32756 2.05415H1.32829ZM2.15003 2.0505C2.15003 2.0505 2.1493 2.0505 2.14857 2.0505C2.14857 2.27767 2.14857 2.50484 2.14857 2.73273C2.14857 2.75099 2.14857 2.76925 2.1493 2.78752C2.16464 3.10306 2.37062 3.31927 2.65549 3.31854C2.92941 3.31781 3.14854 3.11256 3.15657 2.81308C3.16899 2.32223 3.16899 1.83064 3.15803 1.34052C3.15073 1.02643 2.92502 0.816067 2.64015 0.824832C2.36551 0.833597 2.16245 1.04323 2.15149 1.34271C2.14345 1.57864 2.15003 1.8153 2.15003 2.05196V2.0505Z" fill="black"/>
<path id="Vector_8" d="M10.3015 2.07608C10.3015 1.81239 10.2942 1.5487 10.3037 1.28501C10.3271 0.587447 10.8866 0.0286604 11.5783 0.00382553C12.2846 -0.0217398 12.9018 0.502717 12.9427 1.2127C12.9756 1.78317 12.9756 2.35876 12.9427 2.92996C12.9033 3.63775 12.2751 4.17681 11.5819 4.14613C10.8734 4.11473 10.3212 3.55448 10.3015 2.84011C10.2942 2.58592 10.3 2.331 10.3008 2.07608H10.3015ZM11.1247 2.06731C11.1247 2.32223 11.1159 2.57716 11.1269 2.83135C11.1393 3.1111 11.3504 3.31417 11.6141 3.32293C11.8748 3.33097 12.1152 3.13521 12.1239 2.85837C12.1407 2.34049 12.1407 1.82189 12.1261 1.30401C12.1181 1.02352 11.8909 0.827029 11.6272 0.827029C11.3533 0.827029 11.1364 1.0374 11.1254 1.33103C11.1159 1.57646 11.1232 1.82188 11.124 2.06731H11.1247Z" fill="black"/>
<path id="Vector_9" d="M6.26407 2.82032C5.97335 2.69907 5.70382 2.63041 5.48396 2.48578C4.96316 2.14248 4.78858 1.4566 5.03766 0.884667C5.29185 0.301778 5.90688 -0.0137708 6.54236 0.112595C7.13256 0.230195 7.59785 0.769255 7.57959 1.38428C7.54818 2.42589 7.08873 3.27319 6.30936 3.94885C6.1209 4.11246 5.86671 4.08032 5.72281 3.90721C5.57453 3.72971 5.6001 3.51059 5.78563 3.3214C5.94925 3.15413 6.10849 2.98175 6.26407 2.81886V2.82032ZM6.26845 1.91823C6.54967 1.91385 6.76296 1.69399 6.7615 1.41131C6.76003 1.1279 6.54529 0.913153 6.26261 0.910962C5.96678 0.909501 5.74838 1.13374 5.75641 1.4303C5.76445 1.71225 5.98504 1.92188 6.26845 1.9175V1.91823Z" fill="black"/>
<path id="Vector_10" d="M5.85434 24.8264C5.52272 24.8264 5.23347 24.8279 4.94422 24.8264C4.60895 24.8242 4.411 24.6657 4.41611 24.4079C4.42123 24.1581 4.61041 24.0083 4.93107 24.0069C5.42338 24.0054 5.9157 24.0032 6.40728 24.0069C6.82801 24.0098 7.00259 24.2706 6.83459 24.6584C6.41824 25.6182 5.99531 26.5751 5.57166 27.532C5.44383 27.8205 5.22032 27.9213 4.98585 27.8125C4.76745 27.7102 4.70098 27.4823 4.8215 27.204C5.12537 26.5028 5.4358 25.8045 5.74258 25.1047C5.77764 25.0244 5.80832 24.9426 5.85507 24.8272L5.85434 24.8264Z" fill="black"/>
<path id="Vector_11" d="M2.56762 24.8398C2.44126 24.8311 2.34922 24.8369 2.26376 24.8157C2.04244 24.7617 1.91535 24.6207 1.93215 24.3848C1.94748 24.1627 2.07896 24.0291 2.29517 24.013C2.53037 23.9955 2.76849 23.9977 3.00443 24.0115C3.26154 24.0269 3.38863 24.1927 3.39009 24.509C3.39448 25.3183 3.39156 26.1283 3.39156 26.9377C3.39156 27.0925 3.39667 27.2474 3.38863 27.4015C3.37402 27.69 3.22575 27.8471 2.97959 27.8478C2.73343 27.8478 2.5742 27.6907 2.57128 27.403C2.56324 26.6659 2.56762 25.9297 2.56762 25.1926C2.56762 25.0845 2.56762 24.9764 2.56762 24.8406V24.8398Z" fill="black"/>
<path id="Vector_12" d="M8.95423 0.383714C9.18285 0.391019 9.364 0.586778 9.35305 0.814674C9.34209 1.04549 9.14706 1.21933 8.91552 1.20546C8.69638 1.19231 8.52619 1.0097 8.52984 0.789837C8.5335 0.56048 8.7256 0.376409 8.95423 0.382983V0.383714Z" fill="black"/>
<path id="Vector_13" d="M8.31821 27.6171C8.08958 27.6068 7.90989 27.4067 7.92523 27.1803C7.94057 26.9509 8.13925 26.7793 8.36933 26.7961C8.58773 26.8121 8.75428 26.9977 8.7477 27.2175C8.74113 27.4476 8.54756 27.6273 8.31821 27.6171Z" fill="black"/>
<path id="Vector_14" d="M8.76345 24.6847C8.7503 24.9089 8.54432 25.09 8.3208 25.0754C8.08925 25.0601 7.92417 24.8658 7.94171 24.6299C7.95777 24.4093 8.14184 24.2442 8.36171 24.2522C8.58814 24.261 8.77586 24.4633 8.76345 24.6847Z" fill="black"/>
<path id="Vector_15" d="M9.3442 3.34758C9.3442 3.57621 9.15209 3.76758 8.92858 3.76247C8.70653 3.75809 8.51369 3.5543 8.52173 3.3337C8.52976 3.11603 8.70872 2.94292 8.92858 2.94C9.16597 2.93635 9.3442 3.11092 9.34347 3.34758H9.3442Z" fill="black"/>
</g>
</svg>
